<svg xmlns="http://www.w3.org/2000/svg" viewBox="0 0 900 1280" role="img" aria-label="Trang truyện mẫu 1">
  <rect width="900" height="1280" fill="#fbf2df"/>
  <rect x="48" y="48" width="804" height="360" rx="8" fill="#12343b"/>
  <circle cx="718" cy="140" r="54" fill="#fff1ba"/>
  <path d="M90 328c120-96 272-112 456-48 72 26 148 22 240-20v98H90z" fill="#f2b84b"/>
  <rect x="120" y="292" width="200" height="80" fill="#d94f30"/>
  <rect x="368" y="278" width="240" height="94" fill="#0f8b8d"/>
  <rect x="84" y="452" width="348" height="300" rx="8" fill="#f7dcb6" stroke="#1d1d1d" stroke-width="8"/>
  <rect x="468" y="452" width="348" height="300" rx="8" fill="#f6e8cf" stroke="#1d1d1d" stroke-width="8"/>
  <path d="M126 684c80-84 178-108 262-72" fill="none" stroke="#1d1d1d" stroke-width="14" stroke-linecap="round"/>
  <circle cx="206" cy="590" r="38" fill="#0f8b8d"/>
  <rect x="548" y="536" width="178" height="92" rx="8" fill="#183f4a"/>
  <path d="M532 660h226" stroke="#d94f30" stroke-width="18" stroke-linecap="round"/>
  <rect x="84" y="796" width="732" height="388" rx="8" fill="#172b2f" stroke="#1d1d1d" stroke-width="8"/>
  <path d="M146 1040c132-104 260-136 420-92 66 18 126 18 192-4" fill="none" stroke="#faefe0" stroke-width="18" stroke-linecap="round"/>
  <circle cx="676" cy="912" r="58" fill="#f2b84b"/>
  <text x="450" y="1235" text-anchor="middle" font-family="Arial, sans-serif" font-size="28" fill="#4f4638">Trang mẫu - thay bằng ảnh truyện của bạn khi import</text>
</svg>
